<svg id="JJE_Logo" data-name="JJE Logo" xmlns="http://www.w3.org/2000/svg" viewBox="0 0 4334.88 4048.34"><defs><style>.cls-1{fill:#3b69ce;}</style></defs><title>JJE-Logo_Original_Blue_Official_2018_FINAL</title><path class="cls-1" d="M-1852.55-219.58c1.58-48.74,2.51-101.39,5.26-154,1.84-35.21,6.27-70.29,9.53-105.43,1.67-17.9,3.51-35.79,4.94-53.71,5.67-71,14.18-141.75,23.77-212.37,10-73.9,23.3-147.25,36-220.71,15.06-87.23,32.35-174,52.65-260.17,23.2-98.57,50.34-195.93,86.47-290.66,10.2-26.74,19.72-53.75,29.54-80.64,1.37-3.75,2.48-7.62,4.09-11.26,4.43-10.07,9-12.68,20.43-11.44,32.54,3.51,64.28,10.83,95.56,20.3,41.53,12.56,81.47,29.15,120.46,48.05,119.78,58,232,128.09,335.72,211.66,46.72,37.63,94.29,74.2,140.65,112.26,28.82,23.66,56.63,48.62,84,74,117,108.4,226.73,223.83,332.63,343,42.51,47.81,84.4,96.17,126.57,144.28,3.51,4,7.33,7.79,10.47,12.08,9.56,13.08,22.45,15.7,37.29,12.29,18.15-4.17,36.34-8.26,54.39-12.85,49.68-12.61,99.42-24.93,150.14-32.62q51.33-7.79,102.85-14.25c32.36-4.08,64.82-7.42,97.25-10.93,14.57-1.58,29.15-3.12,43.77-4.07,47.85-3.12,95.61-9.23,143.61-7.93,57.27,1.55,114.58,3.71,171.71,7.77,51.78,3.69,103.5,9.16,155,15.86,101.67,13.23,203.18,28,301.5,58.37,20.52,6.34,33.46.86,46.71-15,43.12-51.67,86.59-103.11,131.54-153.2,87.27-97.25,176.35-192.87,270.36-283.7,130.67-126.24,270.28-241.57,422-341.81,73.45-48.53,149.88-91.9,230.23-128.07,57.93-26.07,117.87-45.7,181-54.79,2.63-.37,5.21-1.11,7.84-1.43,8.18-1,14.48,2.26,18.25,9.42a198.72,198.72,0,0,1,8,18.29A2175.07,2175.07,0,0,1,2343.79-1262q30.43,133.29,58.44,267.13c8.94,43,15.08,86.54,22,129.91q9.6,60.15,18.07,120.46c3.56,25.05,6.92,50.15,9.3,75.33,6.07,64.31,11.45,128.68,17.31,193,3,33.15,6.61,66.24,9.67,99.39.92,9.94,1.09,20,1.34,30,.93,37.31,2.63,74.63,2.4,111.93-.36,58.65-1.13,117.32-3.52,175.91-1.6,39.21-6.09,78.31-9.65,117.43-2.9,31.83-5.89,63.67-9.66,95.41-5.73,48.25-12,96.43-18.35,144.61-7.39,56.11-18.18,111.65-29.35,167.11-36.88,183.11-86.17,362.49-158.74,535.09-34.85,82.9-69.52,165.82-109.7,246.31-48.6,97.34-105.66,189.62-167.54,279q-142.86,206.35-327.35,376.45c-138.18,126.89-290,234.51-457.65,319.09-109,55-221.52,101.36-339.34,134.24-48.77,13.61-98.32,23.79-147.91,33.63q-64.6,12.82-129.72,23.08c-26.27,4.15-52.85,7-79.41,8.58-43.89,2.58-87.88,3.65-131.83,5.32-10.65.41-21.31.88-32,1-5.89.06-11.79-.55-17.68-.87-5.31-.29-10.61-.83-15.92-.86q-28-.16-56,0c-54.73.35-109.1-4.24-163.38-10.84-57.52-7-114.68-15.84-171.4-27.87-101.85-21.6-201-52.08-297.83-90-151.49-59.37-292.31-138.3-425-232.14C-887,2015-952.42,1959.49-1015.86,1901.3c-78.77-72.24-152.77-148.87-219.53-232.33-62.91-78.64-119.66-161.71-174.31-246.24-71.45-110.54-130.67-227.41-181.71-348.6-39.81-94.56-76.53-190.21-106.38-288.44q-46.74-153.86-81-310.94c-10.62-48.71-17.68-98.23-25.45-147.52-6.74-42.74-12.61-85.62-18.07-128.54-3.87-30.38-6.39-60.93-9.53-91.4-3.55-34.44-7.68-68.83-10.51-103.33s-4.82-69.12-6.36-103.72C-1850.39-138.36-1851.21-177-1852.55-219.58Zm348.08-1238c-7.94,5.1-8.82,12.84-11,19.65-5.32,16.46-10,33.14-15.24,49.61a2357.52,2357.52,0,0,0-69.76,272.51c-9.69,50.31-20.28,100.44-29.63,150.81-11.53,62.14-23.48,124.26-32.88,186.75-9.61,63.83-17,128-24.15,192.2-6.14,54.91-11.5,109.94-15.59,165-3.84,51.81-6.09,103.75-8,155.67-1.49,39.95-1.54,79.91,1.6,119.88,4,51.12,6.75,102.35,10.17,153.53,1.15,17.27,2.44,34.54,4.11,51.77,4.93,51,9.56,102.1,15.33,153q5.63,49.56,14.21,98.78c7.77,44.56,16.45,89,25.55,133.29,13.77,67.13,28.59,134,46.12,200.31,25.05,94.7,57.18,187,92,278.55,40.36,106,86.47,209.15,141,308.58,61,111.2,128.1,218.25,209.36,316.07,46,55.37,91.18,111.39,140.73,163.69,56,59.14,117,112.85,179.57,164.88,51.81,43.07,105.09,84.15,162.45,119.6s116.29,67.6,176.11,98.39c43.22,22.24,86.38,44.68,131.42,63.06,88.92,36.29,180.32,65,273.73,87.14a1160.63,1160.63,0,0,0,141.56,24.51c30.44,3.33,61,5.61,91.41,9.32a964.28,964.28,0,0,0,141.6,6.88c46-1.18,91.93-2.21,137.87-3.83,32.63-1.15,65.27-2.48,97.81-5,33.17-2.54,66.17-6.7,98.83-13.57,69.7-14.69,138.61-32.52,207.57-50.22a1284.13,1284.13,0,0,0,241.47-88.54c78.65-38.12,153.62-82.68,227.37-129.4,49-31,97.5-62.69,142.91-98.89,90.93-72.46,174.55-152.57,252.29-239,158.67-176.38,283.08-374.85,381.08-590.31,28.13-61.85,51.51-125.66,74.79-189.46,26-71.3,51.29-142.89,70.83-216.27,31.18-117.07,58.71-234.94,77.24-354.82,8.75-56.6,15.45-113.43,22.17-170.27,3.68-31.08,6.82-62.22,9.65-93.39C2333,1.9,2337.9-39.2,2339.28-80.4c3.66-109.28,3.18-218.61-3.65-327.78-2.4-38.51-7.44-76.86-10.93-115.32-4.81-53-8.5-106.2-16.36-158.94-6.37-42.79-12.19-85.67-18.83-128.41-6.75-43.41-13.71-86.79-21.48-130-8.24-45.83-16.15-91.79-26.68-137.12-18.37-79-38.3-157.75-58.24-236.43-11.27-44.49-21.9-89.23-39.09-132-1.65-4.1-4-7.89-6.36-12.34-6.69,2.34-12.36,4.13-17.89,6.29-95.41,37.28-184.14,87-268.46,144.81-66.56,45.67-129.29,96.32-191.7,147.41-145.75,119.3-280.43,250.21-407.93,388.64-65.49,71.11-127.29,145.41-188.45,220.24-18.55,22.7-37.3,45.26-55.72,68.07-7.22,8.94-15.65,11.54-26.5,7.69-13.16-4.68-26.55-8.74-39.71-13.44C841.06-524.84,737.18-544.24,632-557.5,591-562.65,550-567.27,508.88-571c-47.08-4.23-94.22-8.35-141.43-10.35-59.25-2.51-118.62-3-177.79,2.64-44.4,4.2-88.9,7.87-133.08,13.83-58,7.84-115.82,17.48-173.65,26.74A1147.08,1147.08,0,0,0-280.2-499.93c-27.9,8.78-55.94,17.1-84.68,25.86-4.31-4.73-8.51-8.91-12.24-13.48-79.31-97-162.29-190.9-246.21-283.93-50-55.43-99.13-111.71-153.17-163.31q-107.75-102.88-219.83-201a2185.87,2185.87,0,0,0-272.29-202.76c-69.43-43.83-141.53-82.45-218.06-112.47C-1492.78-1453.46-1499-1455.56-1504.47-1457.56Z" transform="translate(1852.55 1620.93)"/><path class="cls-1" d="M1688.25,420.93c.26,7.22.73,14.46.75,21.71.08,37.33,0,74.66.09,112,0,13.32.66,26.64.91,40a73,73,0,0,1-.44,11.93c-1.45,9.81-5.81,14.39-15.5,15.24-8.61.75-17.31.59-26,.58q-268-.29-536-.62c-8.66,0-17.33.12-26,.26a79,79,0,0,0-10,.54c-6.58,1-11,5.11-11.88,11.6a103.24,103.24,0,0,0-.6,14q0,162-.08,324c0,20.9.29,27.36,25.76,26.87,10-.19,20,.08,30,.08q269,0,538,0c8.65,0,17.36-.06,26,.86,10.14,1.09,12.69,4.11,13.41,13.92.38,5.31.33,10.66.34,16,.06,55.33-.14,110.66.25,166,.16,22.44-2.91,26.45-26.31,26.38q-166-.48-332-.51-226-.1-452,0c-16,0-32,.31-48,.37a101.65,101.65,0,0,1-14-.63c-7.43-1-12-5.52-12.75-13.17-.72-7.27-.61-14.64-.61-22q.08-204,.2-408,.06-432,0-864c0-8-.12-16,.43-24,.49-7.11,4.36-10.79,11.44-11.47,4.63-.45,9.32-.32,14-.32q417,0,834,0c24.14,0,25.15.93,25.23,24.34q.3,81,.17,162c0,21.41-3,24.31-24.05,24.64-6,.1-12,0-18,0h-556c-6.67,0-13.35-.2-20,.15-10.91.57-14.4,3.91-15.2,14.32-.36,4.64-.27,9.32-.28,14q0,134,0,268c0,4.66-.08,9.35.26,14,.79,10.61,3.92,13.79,15,14.49,8,.51,16,.33,24,.34q278,.07,556,.22C1668,415.13,1677.69,413,1688.25,420.93Z" transform="translate(1852.55 1620.93)"/><path class="cls-1" d="M-263.16,1051.33c11.38-15.81,148.14-150.26,164-161,6.56,4.25,11.1,10.85,16.23,16.81,20.15,23.38,42.79,43.79,69.66,59.32,40.9,23.64,84.72,34.93,132,31.26,96.94-7.52,176-82,189.83-171.73a362.75,362.75,0,0,0,3.84-55.72q0-426.84,0-853.69c0-8-.2-16,.42-24,.72-9.11,4.77-12.8,14.05-13.63,4.64-.42,9.33-.34,14-.34q101-.15,201.93-.23a124.83,124.83,0,0,1,16,.53c7.46,1,12,5.58,13,13a126.77,126.77,0,0,1,.6,16q.06,337.89,0,675.76c0,72.64-.53,145.28-.75,217.92-.62,210-143.12,385.52-347.78,431.41a509.38,509.38,0,0,1-92.94,12.09c-102.8,3.75-195.66-25.72-279.7-84.43-39.56-27.63-74.12-60.78-107.06-95.78C-259.49,1061-263.52,1057.32-263.16,1051.33Z" transform="translate(1852.55 1620.93)"/><path class="cls-1" d="M-1227.66,1051.21c2.23-2.92,3.94-5.8,6.24-8.08,51.68-51.05,103.42-102,156-153.81,3.7,2.81,7.07,4.71,9.6,7.41,7.75,8.26,14.94,17,22.76,25.23,38.53,40.34,85,66.43,140.41,74.21,62.63,8.81,119-7.29,167.58-48.23,47.57-40.12,70.82-92.23,73.3-154,.57-14,.43-28,.43-42q0-417,0-834c0-8.66-.14-17.35.51-26,.63-8.32,4.43-12,12.54-12.93a122.91,122.91,0,0,1,14-.46q102-.16,204-.23c26,0,28.74,2.64,28.75,28.58q.06,189-.06,378,0,251,.05,502c0,46.92-4.74,93.2-18.54,138.08Q-477,1142.71-692,1218.67a473.18,473.18,0,0,1-186.74,26.24c-74.55-4.36-143.47-27.3-207-66.52-50.91-31.43-94.77-71.11-135.11-114.94a43.29,43.29,0,0,1-4.66-6.46C-1226.26,1055.91-1226.49,1054.54-1227.66,1051.21Z" transform="translate(1852.55 1620.93)"/></svg>